<?xml version="1.0" standalone="no"?>
<!DOCTYPE svg PUBLIC "-//W3C//DTD SVG 20010904//EN"
 "http://www.w3.org/TR/2001/REC-SVG-20010904/DTD/svg10.dtd">
<svg version="1.0" xmlns="http://www.w3.org/2000/svg"
 width="555.000000pt" height="555.000000pt" viewBox="0 0 555.000000 555.000000"
 preserveAspectRatio="xMidYMid meet">
<metadata>
Created by potrace 1.14, written by Peter Selinger 2001-2017
</metadata>
<g transform="translate(0.000000,555.000000) scale(0.100000,-0.100000)"
fill="#000000" stroke="none">
<path d="M2387 5143 c-4 -3 -121 -7 -260 -8 -140 -1 -259 -5 -265 -9 -7 -4
-12 -3 -12 3 0 11 -19 9 -39 -3 -11 -7 -12 -6 -6 5 7 12 6 12 -7 1 -9 -7 -19
-9 -22 -4 -6 10 -60 7 -77 -3 -5 -4 -9 -2 -9 4 0 11 -19 9 -39 -3 -11 -7 -12
-6 -6 5 7 12 6 12 -7 1 -11 -9 -18 -10 -23 -2 -4 7 -12 7 -25 0 -13 -7 -20 -6
-22 2 -3 8 -10 8 -27 -2 -18 -9 -22 -9 -16 0 6 9 2 9 -14 1 -11 -7 -21 -8 -21
-3 0 12 -83 9 -92 -3 -5 -7 -8 -7 -8 0 0 11 -73 11 -90 0 -6 -3 -10 -2 -10 4
0 10 -39 9 -57 -2 -5 -3 -13 -4 -17 0 -9 10 -166 9 -166 0 0 -5 -5 -5 -12 -1
-6 4 -39 8 -72 9 -61 2 -113 -16 -101 -35 4 -6 1 -10 -4 -10 -6 0 -10 -3 -9
-7 1 -5 -9 -28 -22 -53 -13 -25 -23 -48 -22 -52 1 -5 -2 -8 -7 -8 -9 0 -27
-40 -22 -49 2 -2 -4 -8 -13 -13 -9 -5 -14 -13 -11 -19 4 -5 3 -9 -2 -9 -4 0
-17 -18 -27 -40 -11 -22 -23 -40 -28 -40 -4 0 -7 -3 -6 -7 3 -15 -25 -62 -33
-57 -5 3 -9 -3 -9 -14 0 -10 -9 -27 -20 -37 -11 -10 -17 -22 -14 -26 3 -5 0
-9 -5 -9 -6 0 -11 -4 -11 -9 0 -5 15 -7 33 -4 17 2 276 5 574 6 l541 2 -16
-30 c-10 -16 -23 -36 -29 -43 -7 -7 -16 -24 -19 -38 -3 -13 -10 -24 -16 -24
-5 0 -7 -4 -3 -9 3 -5 1 -12 -5 -16 -6 -4 -7 -11 -4 -17 4 -6 2 -8 -3 -5 -6 4
-17 -8 -24 -26 -7 -17 -16 -34 -20 -37 -4 -3 -9 -12 -11 -20 -4 -18 -21 -39
-28 -35 -3 2 -7 -6 -7 -17 -1 -12 -6 -24 -10 -27 -5 -3 -17 -24 -28 -46 -11
-22 -23 -41 -27 -43 -5 -2 -8 -10 -8 -18 0 -8 -5 -14 -12 -14 -6 0 -8 -3 -5
-6 4 -4 -2 -19 -13 -34 -11 -16 -20 -31 -20 -35 0 -3 -7 -13 -15 -22 -8 -8
-13 -19 -10 -24 4 -5 1 -9 -5 -9 -6 0 -9 -4 -6 -9 4 -5 3 -11 -2 -13 -8 -3
-55 -78 -81 -130 -8 -16 -18 -28 -23 -28 -5 0 -6 -4 -3 -10 3 -5 1 -10 -5 -10
-6 0 -8 -4 -5 -10 3 -5 1 -10 -5 -10 -6 0 -9 -4 -6 -9 3 -5 -1 -14 -9 -21 -8
-7 -15 -18 -15 -25 0 -8 -3 -15 -7 -17 -14 -6 -53 -85 -53 -106 0 -21 29 -94
30 -77 1 6 6 -1 12 -15 6 -14 10 -28 10 -32 -1 -5 3 -8 10 -8 6 0 9 -3 5 -6
-3 -3 3 -15 14 -27 10 -11 19 -27 19 -34 0 -7 5 -13 11 -13 5 0 7 -4 4 -10 -3
-5 -1 -10 6 -10 7 0 9 -3 6 -6 -4 -4 2 -19 13 -34 11 -15 17 -30 13 -34 -3 -3
2 -6 12 -6 10 0 15 -3 12 -7 -4 -3 0 -15 10 -25 9 -10 13 -18 10 -18 -4 0 3
-10 14 -21 l22 -22 -24 -13 c-15 -8 -30 -9 -41 -3 -11 6 -19 5 -23 -1 -5 -8
-11 -7 -21 1 -11 9 -14 9 -14 0 0 -8 -6 -9 -17 -3 -10 4 -28 7 -41 5 -12 -2
-32 -4 -45 -6 -12 -2 -28 1 -35 6 -8 6 -12 5 -12 -4 0 -10 -3 -10 -12 -1 -8 8
-17 8 -31 1 -15 -8 -18 -8 -12 1 6 9 2 9 -14 1 -11 -7 -21 -8 -21 -3 0 5 -7 9
-15 9 -8 0 -15 -4 -15 -8 0 -9 -26 -6 -36 4 -4 3 -12 3 -18 0 -17 -11 -35 -12
-42 -2 -3 5 -11 6 -17 2 -17 -11 -57 -12 -57 -1 0 4 -7 8 -15 8 -8 0 -15 6
-15 13 0 18 -24 67 -32 67 -5 0 -8 4 -8 10 0 10 -77 141 -89 150 -3 3 -7 12
-9 20 -2 8 -8 17 -13 18 -5 2 -7 8 -3 13 3 5 0 9 -5 9 -6 0 -11 9 -11 19 0 10
-6 21 -13 24 -7 3 -18 21 -24 40 -9 30 -7 41 12 75 13 23 20 43 17 46 -3 3 2
6 12 6 9 0 14 5 11 10 -3 6 3 23 14 38 11 16 21 35 23 42 2 8 11 23 20 34 10
11 18 26 18 33 0 7 5 13 10 13 6 0 10 6 10 13 0 7 9 23 20 35 12 12 18 22 14
22 -3 0 -1 7 6 15 7 8 9 15 6 15 -4 0 2 10 14 22 11 12 20 27 20 33 0 7 10 23
22 37 32 35 31 45 -2 44 -17 -1 -30 -3 -30 -6 0 -3 -97 -5 -215 -6 -152 0
-212 2 -208 10 4 7 2 7 -8 -1 -8 -6 -29 -10 -46 -8 -18 1 -33 -2 -33 -7 0 -5
-6 -6 -12 -2 -7 4 -10 4 -6 0 3 -4 -14 -37 -39 -73 -24 -36 -39 -62 -32 -57 7
4 -2 -13 -19 -38 -17 -25 -28 -48 -25 -52 4 -3 1 -6 -6 -6 -7 0 -9 -5 -6 -10
3 -6 -1 -13 -9 -16 -9 -3 -14 -10 -11 -14 3 -4 -2 -13 -10 -20 -8 -7 -15 -19
-15 -26 0 -8 -5 -14 -11 -14 -5 0 -8 -4 -4 -9 3 -5 1 -12 -5 -16 -5 -3 -19
-26 -30 -51 -11 -24 -24 -44 -28 -44 -10 0 -15 -62 -5 -69 5 -3 21 -31 37 -61
16 -30 34 -58 40 -62 7 -5 7 -8 1 -8 -7 0 -7 -3 0 -8 6 -4 19 -25 31 -47 27
-52 48 -89 54 -95 3 -3 18 -31 34 -62 16 -32 32 -58 37 -58 5 0 9 -9 9 -20 0
-11 4 -20 8 -20 8 0 42 -64 41 -77 0 -3 6 -10 15 -15 9 -5 14 -13 11 -19 -4
-5 -1 -9 4 -9 6 0 11 -5 11 -11 0 -6 9 -24 21 -40 11 -16 17 -29 14 -29 -4 0
0 -7 7 -15 23 -25 33 -40 36 -54 1 -7 9 -20 17 -28 8 -8 18 -25 21 -39 3 -13
9 -24 13 -24 3 0 15 -18 25 -40 11 -22 23 -40 28 -40 4 0 8 -9 8 -19 0 -11 4
-22 9 -26 6 -3 16 -18 24 -33 21 -43 41 -76 56 -94 8 -10 10 -18 5 -18 -5 0
-4 -4 1 -8 12 -9 44 -61 52 -84 3 -10 9 -18 14 -18 5 0 9 -9 9 -20 0 -11 3
-20 8 -20 4 0 18 -21 32 -47 13 -27 27 -50 30 -53 9 -9 40 -75 40 -83 -1 -5 8
-17 19 -26 12 -10 21 -25 21 -33 0 -8 5 -19 10 -24 12 -12 42 -62 68 -114 9
-19 20 -37 25 -38 4 -2 5 -8 1 -13 -3 -5 -1 -9 5 -9 5 0 13 -10 17 -22 3 -13
15 -35 25 -50 11 -14 19 -33 19 -42 0 -9 5 -16 11 -16 5 0 8 -4 4 -9 -3 -6 3
-14 12 -20 10 -6 14 -11 9 -11 -5 0 -1 -9 9 -20 10 -11 14 -20 10 -20 -4 0 -1
-8 7 -17 9 -10 24 -36 35 -58 23 -49 46 -88 54 -95 3 -3 21 -32 39 -65 18 -33
46 -79 61 -102 16 -23 29 -46 29 -52 0 -6 5 -11 10 -11 6 0 10 -7 10 -15 0 -8
3 -15 8 -15 4 0 16 -18 26 -40 11 -22 23 -40 28 -40 5 0 7 -4 4 -9 -3 -5 1
-14 9 -21 8 -7 12 -16 9 -21 -3 -5 -1 -9 3 -9 5 0 24 -29 43 -65 19 -36 38
-65 43 -65 4 0 6 -4 2 -9 -3 -5 2 -16 10 -24 8 -9 15 -23 15 -31 0 -9 4 -16 8
-16 11 0 56 -80 45 -80 -4 0 0 -5 10 -11 9 -5 17 -17 17 -24 0 -8 5 -15 11
-15 5 0 7 -5 4 -10 -3 -6 -2 -10 3 -10 6 0 15 -12 21 -27 14 -37 43 -85 61
-101 8 -7 9 -11 3 -7 -9 4 -11 1 -7 -9 3 -9 10 -16 15 -16 5 0 9 -7 9 -15 0
-8 4 -15 9 -15 5 0 12 -11 15 -24 3 -14 12 -31 19 -38 6 -7 21 -30 32 -50 11
-21 23 -38 27 -38 5 0 7 -3 6 -8 -2 -4 3 -21 10 -38 l13 -30 198 1 c109 2 204
5 210 9 6 4 11 3 11 -3 0 -7 8 -7 24 -1 13 5 27 6 30 2 9 -9 46 -10 46 -1 0 9
40 0 60 -14 12 -9 13 -9 3 3 -7 8 -13 22 -13 33 0 10 -4 16 -9 13 -5 -3 -20
18 -35 47 -40 79 -64 120 -78 129 -7 4 -9 8 -4 8 4 0 1 11 -8 25 -9 14 -14 25
-11 25 3 0 -2 9 -12 19 -10 11 -29 42 -43 68 -13 26 -27 50 -31 53 -13 10 -48
88 -42 94 4 3 -1 6 -11 6 -9 0 -14 5 -11 10 3 6 1 10 -5 10 -6 0 -8 5 -5 10 3
6 1 10 -5 10 -6 0 -9 4 -6 9 4 5 2 11 -3 13 -5 1 -11 10 -13 18 -2 8 -6 17 -9
20 -6 5 -55 91 -73 127 -6 13 -15 23 -19 23 -5 0 -6 4 -3 9 3 5 -1 14 -9 21
-8 7 -15 19 -15 26 0 8 -4 14 -8 14 -5 0 -14 16 -22 35 -8 19 -17 35 -22 35
-4 0 -8 7 -8 15 0 8 -4 15 -10 15 -5 0 -10 7 -10 15 0 8 -4 15 -8 15 -5 0 -9
6 -9 13 0 9 14 13 39 13 21 0 38 -4 38 -9 0 -5 6 -5 13 1 8 7 18 7 27 2 8 -5
18 -6 23 -3 16 10 57 10 57 0 0 -6 5 -5 13 1 8 7 18 7 27 2 8 -5 21 -5 31 0 9
5 19 7 22 4 9 -9 68 -11 73 -2 3 4 13 4 23 -2 10 -5 21 -7 23 -4 12 11 48 12
48 1 0 -8 3 -8 8 -2 9 13 62 15 62 2 0 -6 5 -5 13 1 8 7 18 7 27 2 8 -5 18 -6
23 -3 14 8 92 7 106 -1 6 -4 11 -3 11 3 0 9 31 8 48 -3 4 -2 14 -1 22 4 9 5
19 5 27 -2 8 -6 13 -6 13 -1 0 11 29 11 48 -1 6 -4 12 -3 12 1 0 5 9 9 20 9
11 0 20 -4 20 -9 0 -4 6 -5 13 0 18 11 67 10 67 -1 0 -6 5 -5 12 2 7 7 17 8
29 2 12 -7 20 -7 24 0 4 6 13 7 22 2 27 -16 64 -1 75 29 5 16 14 29 20 29 5 0
6 5 3 10 -3 6 -1 10 4 10 6 0 10 3 9 8 -3 9 31 72 48 90 8 7 14 20 14 28 0 8
5 14 11 14 6 0 8 7 5 16 -3 8 -2 12 4 9 6 -3 10 1 10 9 0 9 5 16 11 16 5 0 7
5 4 10 -3 6 0 13 8 16 8 3 14 13 13 22 -2 9 5 25 15 36 10 10 16 22 14 27 -3
4 2 15 11 24 15 15 18 15 34 -2 10 -10 16 -21 13 -25 -2 -5 0 -8 5 -8 6 0 15
-14 21 -30 5 -17 15 -30 22 -30 7 0 9 -3 6 -6 -4 -4 2 -19 13 -34 11 -16 20
-33 20 -39 0 -5 8 -15 18 -20 9 -6 13 -11 9 -11 -5 0 0 -12 10 -27 10 -16 25
-40 33 -55 7 -16 17 -28 22 -28 4 0 8 -5 8 -11 0 -7 16 -34 36 -61 41 -58 49
-84 28 -92 -9 -3 -13 -10 -10 -15 4 -5 1 -16 -6 -23 -13 -14 -40 -60 -62 -105
-6 -13 -15 -23 -19 -23 -5 0 -5 -4 -2 -10 3 -5 1 -10 -4 -10 -6 0 -11 -4 -11
-9 0 -13 -72 -134 -85 -143 -5 -4 -6 -8 -2 -8 5 0 1 -7 -7 -16 -9 -8 -16 -22
-16 -30 0 -16 -42 -29 -65 -20 -8 3 -15 0 -15 -6 0 -6 -6 -5 -17 3 -11 10 -14
10 -9 2 4 -7 3 -13 -3 -13 -5 0 -13 5 -17 11 -4 8 -9 7 -15 -2 -7 -11 -9 -11
-9 1 0 13 -1 13 -11 0 -8 -11 -12 -12 -16 -2 -2 6 -10 9 -16 5 -18 -11 -47
-11 -47 0 0 5 -7 4 -15 -3 -12 -10 -15 -10 -15 1 0 9 -3 10 -8 4 -4 -6 -53
-10 -109 -10 -62 0 -103 4 -103 10 0 6 -5 3 -10 -5 -9 -13 -11 -13 -20 0 -5 8
-10 10 -10 4 0 -7 -11 -9 -25 -6 -32 6 -31 -4 5 -61 17 -26 30 -52 30 -57 0
-6 5 -10 11 -10 5 0 7 -5 4 -10 -3 -6 -1 -10 4 -10 6 0 11 -6 11 -14 0 -7 7
-19 15 -26 8 -7 12 -16 9 -21 -3 -5 -1 -9 4 -9 5 0 12 -8 16 -18 12 -37 74
-141 80 -135 3 4 6 -3 6 -15 0 -11 4 -22 8 -24 5 -1 15 -21 24 -43 l16 -40
278 0 c285 0 324 5 324 40 0 7 7 16 16 19 9 4 14 9 11 13 -4 3 3 19 14 34 11
16 17 29 12 29 -4 0 -1 6 7 13 9 7 24 30 34 52 11 22 22 42 26 45 4 3 15 21
25 40 9 19 25 43 34 54 9 10 15 20 13 22 -1 2 5 15 13 29 8 14 22 36 30 50 8
14 14 26 13 27 -1 2 12 24 30 50 18 26 32 50 32 53 0 4 9 19 20 35 11 15 17
30 13 34 -3 3 -1 6 5 6 7 0 12 7 12 15 0 8 5 15 12 15 6 0 8 3 5 6 -4 4 5 20
18 36 14 16 25 34 25 40 0 13 71 132 82 136 4 2 6 8 2 13 -3 5 0 9 5 9 6 0 11
5 11 12 0 6 8 20 18 31 12 15 13 19 2 13 -13 -7 -13 -6 0 6 8 7 23 29 34 48
54 101 120 210 126 210 4 0 7 6 7 13 0 7 18 42 41 78 23 36 42 71 42 76 0 6
12 23 28 38 15 16 20 25 12 20 -13 -7 -13 -6 0 11 9 10 22 31 30 47 7 15 17
27 22 27 5 0 6 4 3 10 -3 5 -3 10 2 10 4 0 17 19 28 43 11 23 28 51 37 61 10
11 18 26 18 33 0 7 4 13 9 13 5 0 14 14 21 30 7 17 17 30 22 30 5 0 6 4 3 10
-3 5 -3 10 2 10 4 0 21 25 38 55 16 30 33 55 38 55 4 0 5 5 2 10 -3 6 1 13 9
16 9 3 16 13 16 22 0 8 11 30 25 48 14 18 25 40 25 48 0 9 5 16 10 16 6 0 10
6 10 14 0 8 3 16 8 18 6 3 38 59 109 198 15 30 31 57 36 58 4 2 7 10 7 18 0 8
5 14 11 14 5 0 8 4 4 9 -3 5 0 15 7 23 7 7 24 36 38 63 14 28 32 55 40 62 8 7
11 13 7 13 -5 0 1 13 12 29 12 16 21 34 21 40 0 6 3 11 8 11 4 0 16 18 26 40
11 22 23 40 28 40 4 0 7 3 6 8 -2 4 6 23 18 42 11 19 22 40 23 45 1 6 9 17 17
26 8 9 11 19 7 22 -3 4 0 7 7 7 7 0 11 3 7 6 -3 3 3 14 14 25 10 10 19 26 19
34 0 8 4 15 9 15 5 0 12 11 15 25 4 14 11 25 17 25 6 0 8 4 5 9 -3 5 1 14 9
21 8 7 12 16 9 21 -3 5 -1 9 4 9 6 0 15 14 21 30 5 17 15 30 20 30 6 0 10 3 9
8 -2 13 15 47 31 59 9 7 12 13 8 13 -5 0 -2 7 7 15 19 19 11 71 -16 99 -10 11
-18 26 -18 33 0 7 -5 13 -11 13 -5 0 -7 5 -4 10 3 6 2 10 -3 10 -5 0 -19 23
-32 50 -13 28 -27 50 -32 50 -5 0 -6 5 -3 10 3 6 1 10 -4 10 -6 0 -11 7 -11
15 0 8 -5 15 -11 15 -5 0 -8 4 -4 9 3 5 -6 22 -20 37 -13 14 -22 30 -20 35 3
4 -2 12 -11 17 -9 5 -15 11 -14 13 4 7 -42 99 -52 105 -12 7 -29 -16 -22 -28
3 -4 0 -8 -6 -8 -6 0 -9 -4 -6 -9 4 -5 3 -11 -1 -13 -5 -1 -30 -46 -57 -98
-26 -52 -55 -100 -63 -107 -8 -6 -14 -15 -14 -20 1 -4 -5 -15 -13 -25 -8 -9
-12 -19 -9 -22 3 -2 -4 -18 -16 -34 -12 -17 -21 -35 -21 -41 0 -6 -4 -11 -9
-11 -5 0 -12 -11 -15 -25 -4 -14 -11 -25 -16 -25 -6 0 -10 -5 -10 -10 0 -6
-11 -28 -25 -50 -14 -22 -23 -40 -20 -40 3 0 -3 -10 -14 -22 -11 -11 -18 -25
-15 -30 3 -4 1 -8 -4 -8 -5 0 -17 -16 -26 -35 -9 -19 -21 -35 -26 -35 -6 0
-10 -3 -9 -7 2 -15 -13 -53 -21 -53 -4 0 -10 -8 -13 -17 -4 -10 -18 -36 -32
-58 -13 -22 -27 -47 -31 -55 -3 -8 -13 -28 -22 -45 -9 -16 -15 -32 -15 -35 1
-3 -6 -3 -15 -2 -19 5 -33 22 -26 34 3 4 1 8 -4 8 -5 0 -15 12 -23 28 -8 15
-16 29 -19 32 -3 3 -16 26 -29 53 -13 26 -28 47 -33 47 -5 0 -6 5 -3 10 3 6 1
10 -5 10 -6 0 -9 4 -6 8 3 5 -4 19 -15 30 -11 12 -17 22 -14 22 4 0 -3 13 -14
29 -11 15 -17 32 -13 36 4 5 2 5 -4 2 -7 -4 -18 11 -29 38 -10 29 -21 43 -28
38 -7 -3 -9 -3 -5 2 4 4 -1 22 -11 39 -46 76 -72 122 -78 139 -3 9 -9 17 -14
17 -5 0 -9 7 -9 15 0 8 -5 15 -11 15 -5 0 -7 5 -4 11 4 5 -3 19 -16 30 -12 10
-19 19 -15 19 4 0 -2 13 -13 29 -12 16 -21 34 -21 40 0 6 -3 11 -8 11 -8 0
-38 61 -34 73 1 4 -2 7 -7 7 -10 0 -46 70 -43 83 1 4 -5 7 -13 7 -8 0 -15 4
-15 9 0 10 -32 7 -50 -4 -6 -3 -10 -1 -10 6 0 7 -4 8 -12 2 -7 -5 -97 -9 -200
-9 -104 1 -188 -2 -188 -6 0 -4 -6 -5 -14 -2 -16 6 -11 30 11 52 7 8 11 17 8
22 -3 4 2 10 10 14 8 3 15 12 15 21 0 8 5 15 10 15 6 0 10 7 10 15 0 8 5 15
11 15 5 0 7 5 4 10 -3 6 1 10 10 10 9 0 13 5 10 10 -4 6 5 26 20 45 14 19 23
35 19 35 -4 0 0 8 9 18 10 10 14 22 11 25 -4 4 1 9 10 13 9 3 14 10 11 14 -3
5 -1 11 5 15 6 3 17 22 25 41 8 19 19 34 24 34 6 0 8 7 5 15 -4 8 -1 15 5 15
6 0 11 6 11 13 1 37 11 38 271 39 l253 1 27 -49 c15 -27 24 -53 21 -59 -3 -5
-2 -7 3 -3 4 4 20 -18 36 -50 16 -31 34 -61 39 -66 6 -6 10 -16 10 -23 0 -6
12 -29 26 -50 14 -21 33 -54 42 -73 9 -19 22 -41 29 -48 7 -7 13 -19 13 -25 0
-7 9 -23 20 -37 18 -24 19 -24 25 -5 12 35 40 90 48 93 4 2 5 8 1 13 -3 5 -1
9 4 9 4 0 14 16 22 35 7 19 18 31 23 28 6 -3 7 -1 4 4 -4 6 2 22 13 35 11 14
16 28 13 32 -3 3 -1 6 5 6 7 0 12 6 12 13 0 7 9 23 19 34 11 12 17 24 14 27
-4 3 -1 6 5 6 7 0 11 3 10 8 -2 4 13 32 32 62 19 30 38 62 41 70 6 14 -15 58
-34 71 -5 3 -9 10 -9 15 -1 12 -30 57 -43 66 -5 4 -6 8 -2 8 5 0 -1 13 -12 29
-11 15 -18 31 -14 35 3 3 1 6 -6 6 -7 0 -10 4 -7 9 3 5 -1 11 -9 15 -8 3 -15
12 -15 21 0 8 -5 15 -11 15 -5 0 -8 4 -5 9 4 5 3 11 -1 13 -5 1 -24 35 -45 75
-20 39 -38 69 -41 66 -3 -3 -3 4 0 16 5 20 2 22 -29 25 -7 1 -16 5 -19 9 -3 4
-18 3 -32 -2 -15 -6 -27 -7 -27 -3 0 4 -63 7 -140 7 -77 0 -140 -4 -140 -8 0
-5 -5 -5 -12 -1 -18 12 -598 11 -598 -1 0 -6 -3 -6 -8 0 -8 12 -101 13 -118 2
-6 -3 -14 -3 -18 1 -11 11 -76 8 -76 -3 0 -5 -4 -4 -9 3 -11 19 -15 19 -34 3
-10 -7 -17 -10 -17 -5 0 10 -72 10 -89 0 -6 -4 -11 -2 -11 4 0 7 -6 8 -19 1
-10 -6 -21 -7 -25 -4 -11 11 -36 12 -36 2 0 -6 -5 -7 -11 -3 -6 3 -37 6 -69 6
-32 0 -63 -3 -69 -6 -6 -4 -11 -3 -11 2 0 10 -36 9 -46 -1 -4 -3 -14 -3 -23 1
-20 9 -42 9 -58 -1 -7 -5 -13 -5 -13 0 0 9 -84 8 -99 -1 -5 -4 -11 -1 -13 5
-2 7 -12 7 -31 0 -15 -6 -27 -7 -27 -3 0 4 -75 7 -168 7 -92 -1 -172 3 -178 7
-6 4 -14 5 -17 1z m991 -512 c3 -8 0 -11 -5 -8 -8 5 -39 -48 -31 -55 2 -2 -4
-11 -12 -21 -31 -37 -35 -43 -50 -72 -8 -16 -22 -42 -32 -57 -10 -14 -18 -34
-18 -43 0 -9 -4 -14 -9 -11 -7 5 -20 -19 -25 -47 0 -5 -8 -14 -17 -20 -9 -7
-17 -15 -18 -19 -5 -22 -16 -46 -33 -70 -10 -14 -18 -33 -18 -42 0 -9 -8 -17
-17 -18 -49 -4 -59 -4 -72 6 -11 8 -13 8 -8 0 7 -13 -180 -14 -200 -1 -6 4
-15 3 -18 -3 -5 -8 -12 -7 -23 2 -12 10 -14 10 -8 0 8 -13 -19 -13 -41 1 -6 4
-14 4 -17 -1 -2 -4 -27 -7 -55 -7 -28 0 -51 -2 -51 -5 0 -3 -11 -18 -25 -34
-14 -16 -25 -35 -25 -43 0 -7 -5 -13 -11 -13 -5 0 -8 -4 -4 -9 3 -5 0 -15 -7
-23 -7 -7 -14 -20 -16 -28 -2 -8 -10 -21 -19 -27 -9 -7 -13 -13 -9 -13 5 0 3
-7 -4 -15 -7 -8 -9 -15 -6 -15 4 0 2 -6 -4 -12 -23 -28 -58 -87 -54 -91 3 -2
-2 -10 -11 -17 -8 -7 -15 -19 -15 -27 0 -7 -7 -16 -15 -19 -8 -4 -13 -10 -10
-14 3 -4 -6 -18 -19 -31 -28 -27 -24 -56 7 -55 12 1 27 5 34 9 6 4 14 4 16 0
3 -5 190 -8 416 -8 227 0 411 -4 411 -9 0 -5 6 -4 13 1 15 13 47 13 47 0 0 -6
5 -6 13 0 15 13 47 13 47 1 0 -5 6 -6 12 -1 18 10 108 11 108 0 0 -6 5 -6 13
0 6 5 81 8 165 8 l154 -1 16 -35 c9 -19 22 -40 29 -47 7 -8 11 -18 8 -23 -4
-5 -1 -9 4 -9 6 0 11 -7 11 -15 0 -8 4 -15 8 -15 4 0 14 -16 21 -35 7 -19 16
-35 20 -35 7 0 22 -36 20 -49 -1 -2 6 -8 15 -13 9 -5 16 -18 16 -29 0 -13 4
-18 12 -13 6 4 8 3 5 -3 -4 -5 5 -25 18 -43 13 -18 22 -37 19 -41 -3 -5 -1 -9
5 -9 6 0 18 -17 28 -37 9 -21 20 -40 23 -43 4 -3 13 -20 21 -37 8 -18 17 -33
21 -33 5 0 8 -7 8 -15 0 -8 3 -15 8 -15 4 0 13 -12 19 -27 7 -16 23 -44 35
-63 12 -19 22 -37 23 -40 0 -3 21 -39 45 -80 24 -41 45 -77 45 -80 0 -3 10
-20 23 -37 15 -22 22 -42 19 -60 -7 -44 -19 -73 -28 -73 -5 0 -9 -9 -9 -19 0
-11 -7 -26 -15 -35 -8 -8 -15 -17 -15 -21 0 -3 -15 -30 -34 -59 -18 -29 -37
-62 -40 -74 -4 -12 -12 -22 -17 -22 -5 0 -9 -5 -9 -11 0 -6 -9 -23 -20 -39
-11 -15 -17 -30 -13 -34 3 -3 2 -6 -3 -6 -5 0 -22 -26 -39 -58 -16 -31 -32
-59 -35 -62 -15 -15 -45 -74 -50 -95 -1 -5 -8 -14 -16 -18 -8 -4 -14 -15 -14
-22 0 -8 -4 -15 -10 -15 -5 0 -10 -6 -10 -14 0 -8 -6 -21 -14 -28 -7 -8 -17
-24 -20 -36 -4 -12 -12 -22 -17 -22 -6 0 -7 -4 -4 -10 3 -5 1 -10 -6 -10 -7 0
-9 -3 -6 -7 4 -3 0 -15 -10 -25 -9 -10 -12 -18 -7 -18 5 0 3 -4 -4 -9 -7 -4
-15 -17 -16 -27 -2 -10 -8 -18 -14 -17 -6 2 -9 -6 -7 -16 2 -10 0 -23 -4 -30
-8 -13 -41 -5 -41 11 0 5 6 6 13 2 6 -4 5 1 -4 12 -8 10 -20 30 -25 44 -29 69
-40 90 -46 90 -5 0 -8 7 -8 15 0 8 -5 15 -11 15 -5 0 -7 5 -4 10 3 6 1 10 -5
10 -6 0 -8 5 -5 10 3 6 2 10 -3 10 -4 0 -14 16 -22 35 -8 19 -17 35 -21 35 -4
0 -13 16 -20 34 -7 19 -17 32 -22 29 -6 -4 -8 3 -5 15 4 12 3 20 -1 18 -4 -3
-16 12 -26 32 -11 20 -23 39 -27 42 -13 10 -21 60 -9 60 6 0 11 7 11 16 0 8 5
12 10 9 6 -3 10 -1 10 5 0 6 16 35 35 65 19 30 31 55 27 55 -4 0 1 5 11 11 9
5 17 16 17 23 0 8 7 19 15 26 8 7 12 16 9 21 -3 5 -2 9 3 9 8 0 46 58 47 73 1
4 8 12 16 17 8 5 12 10 8 10 -4 0 4 12 17 26 26 28 32 44 15 44 -5 0 -10 7
-10 15 0 8 -9 20 -20 27 -11 7 -20 18 -20 25 0 7 -4 13 -10 13 -5 0 -10 7 -10
15 0 8 -5 15 -10 15 -6 0 -9 3 -8 8 3 10 -43 96 -56 104 -6 4 -7 8 -3 8 4 0 3
6 -3 13 -23 26 -78 126 -72 131 3 3 0 6 -7 6 -7 0 -9 5 -6 10 3 6 2 10 -4 10
-5 0 -12 18 -16 40 -4 25 -12 40 -21 40 -8 0 -14 -4 -14 -8 0 -5 -9 -18 -20
-30 -12 -12 -17 -22 -13 -22 4 0 3 -4 -3 -8 -7 -4 -23 -28 -37 -54 -14 -26
-28 -44 -31 -41 -3 4 -6 -3 -6 -15 0 -12 -3 -22 -7 -22 -5 0 -17 -18 -27 -40
-11 -22 -23 -40 -28 -40 -4 0 -8 -9 -8 -20 0 -11 -4 -20 -10 -20 -5 0 -12 -11
-16 -25 -3 -14 -10 -25 -14 -25 -5 0 -12 -10 -16 -22 -4 -13 -10 -25 -14 -28
-7 -5 -28 -45 -68 -127 -9 -18 -19 -33 -23 -33 -4 0 -10 -13 -14 -30 -4 -17
-10 -30 -15 -30 -5 0 -14 -16 -21 -35 -7 -19 -17 -35 -21 -35 -4 0 -8 -6 -8
-14 0 -7 -9 -25 -21 -40 -11 -14 -18 -30 -15 -35 3 -5 -1 -12 -10 -15 -9 -4
-14 -9 -11 -12 3 -4 -3 -15 -14 -27 -10 -11 -19 -27 -19 -34 0 -7 -5 -13 -11
-13 -5 0 -7 -4 -4 -10 3 -5 2 -10 -2 -10 -5 0 -15 -16 -22 -35 -7 -19 -17 -35
-22 -35 -5 0 -9 -7 -9 -15 0 -8 -5 -15 -11 -15 -5 0 -7 -5 -4 -10 3 -6 -1 -13
-9 -16 -9 -3 -14 -10 -11 -14 3 -4 -2 -13 -10 -20 -8 -7 -15 -16 -15 -21 0
-12 -52 -93 -62 -97 -5 -2 -8 -10 -8 -18 0 -8 -4 -14 -10 -14 -5 0 -10 -9 -10
-21 0 -11 -4 -17 -10 -14 -5 3 -10 3 -10 -2 0 -4 -25 -8 -55 -8 -30 -1 -55 3
-55 8 0 5 -6 5 -13 -1 -8 -7 -18 -7 -27 -2 -8 5 -18 6 -23 3 -13 -8 -102 -7
-116 1 -6 4 -11 3 -11 -3 0 -10 -18 -10 -35 1 -6 4 -17 3 -25 -2 -9 -5 -19 -5
-27 2 -10 8 -13 7 -13 -3 0 -11 -2 -11 -10 1 -7 11 -10 11 -10 2 0 -10 -5 -10
-20 -2 -12 6 -20 7 -20 1 0 -10 -25 -9 -36 2 -4 3 -15 2 -25 -4 -13 -7 -19 -6
-19 1 0 6 -5 8 -12 4 -16 -10 -68 -11 -68 -1 0 5 -5 5 -12 1 -14 -9 -92 -9
-106 0 -6 3 -12 0 -15 -6 -4 -10 -7 -10 -18 -1 -10 10 -16 10 -28 0 -12 -10
-13 -9 -6 2 6 11 5 12 -6 5 -20 -12 -39 -14 -39 -3 0 5 -10 5 -22 0 -13 -5
-33 -5 -46 0 -14 6 -21 5 -17 0 3 -6 -4 -9 -15 -8 -11 1 -20 6 -20 11 0 6 -5
5 -12 -2 -7 -7 -17 -8 -29 -2 -10 6 -20 7 -23 2 -4 -7 -50 -8 -66 -2 -8 3 -24
7 -38 8 -6 1 -11 5 -10 10 2 10 -35 72 -44 72 -4 0 -4 7 -1 17 4 10 2 14 -4
10 -5 -3 -16 9 -23 28 -8 19 -18 35 -22 35 -5 0 -6 5 -3 10 3 6 -1 13 -9 16
-9 3 -14 9 -12 13 3 4 -11 29 -29 56 -19 28 -34 58 -35 68 0 10 -4 15 -10 12
-9 -6 -14 8 -11 28 0 4 -3 7 -9 7 -5 0 -10 6 -10 14 0 8 -3 16 -7 18 -5 2 -17
21 -28 43 -11 22 -24 45 -28 50 -23 30 -74 125 -69 129 3 3 0 6 -7 6 -7 0 -9
4 -6 10 3 6 2 10 -2 10 -5 0 -20 21 -33 48 -14 26 -28 49 -32 50 -5 2 -8 9 -8
17 0 7 -7 18 -15 25 -9 7 -13 15 -11 18 3 2 0 10 -7 17 -40 43 -47 56 -38 73
6 9 11 12 11 6 0 -8 64 -12 222 -13 122 -1 225 -4 230 -7 4 -3 8 -1 8 4 0 5
20 6 45 2 25 -4 45 -3 45 2 0 10 35 -21 35 -31 1 -16 39 -81 47 -81 5 0 7 -4
3 -9 -4 -8 25 -62 53 -96 9 -11 12 -20 12 -35 0 -5 9 -19 20 -30 11 -11 16
-20 10 -20 -5 0 2 -12 15 -26 14 -15 27 -42 31 -60 3 -19 10 -31 15 -28 5 3 9
-1 9 -8 0 -9 3 -9 10 2 5 8 10 11 10 5 0 -5 18 -10 40 -10 22 0 40 2 40 5 0 3
49 3 110 0 61 -3 110 -3 110 0 0 3 27 3 60 0 33 -3 60 -3 60 0 0 3 27 3 60 0
33 -3 60 -2 60 3 0 4 5 5 10 2 6 -3 10 -2 10 4 0 5 -3 11 -7 13 -5 2 -21 23
-37 48 -16 25 -38 58 -49 74 -11 16 -20 35 -20 42 0 7 -6 15 -14 18 -7 3 -13
12 -13 21 0 8 -5 15 -11 15 -5 0 -8 4 -4 9 3 5 -1 15 -8 23 -15 15 -31 49 -29
61 1 4 -5 7 -15 7 -9 0 -14 3 -10 6 3 4 -9 31 -28 60 -19 30 -35 61 -35 69 0
8 -4 15 -10 15 -5 0 -10 7 -10 15 0 8 -4 15 -10 15 -5 0 -10 6 -10 14 0 8 -5
16 -10 18 -6 2 -12 13 -13 25 0 12 -5 19 -9 17 -4 -3 -8 1 -8 9 0 8 -7 20 -15
27 -8 7 -13 16 -10 20 3 4 -2 11 -11 14 -8 3 -12 10 -9 16 3 5 2 10 -3 10 -5
0 -12 8 -16 18 -8 23 -55 105 -64 112 -4 3 -13 16 -19 30 -20 40 -59 109 -72
123 -6 8 -8 17 -4 20 3 4 2 7 -4 7 -5 0 -20 23 -32 50 -12 28 -27 50 -32 50
-5 0 -9 4 -9 10 0 5 -13 31 -28 57 -40 68 -53 108 -39 122 6 6 8 11 4 11 -4 0
5 21 20 48 14 26 30 55 35 65 18 38 48 93 83 152 13 22 31 55 40 73 10 17 21
32 26 32 5 0 9 7 9 15 0 8 5 15 11 15 5 0 8 4 5 9 -3 4 3 16 14 26 11 10 17
22 14 26 -3 5 0 9 5 9 6 0 11 7 11 15 0 8 3 15 8 15 4 0 16 19 27 43 11 23 22
44 25 47 5 5 11 16 52 89 11 20 25 42 30 49 6 6 7 12 2 12 -5 0 -4 4 2 8 6 4
36 53 68 109 l57 103 402 2 c642 5 660 4 665 -11z"/>
</g>
</svg>
